<svg width="122" height="54" viewBox="0 0 122 54" fill="none" xmlns="http://www.w3.org/2000/svg">
<path d="M117.2 35.944H102.394C100.875 35.944 99.6634 34.1374 99.6634 32.6159C99.6634 31.1366 100.875 29.2651 102.394 29.2651H113.531V24.5943H102.394C100.875 24.5943 99.6634 22.6601 99.6634 21.1808C99.6634 19.6593 100.875 17.7674 102.394 17.7674H117.2V13.5006H102.349C98.7673 13.5006 95.3965 17.7674 95.3965 21.1808C95.3965 23.2518 96.6055 25.4614 97.914 26.8983C96.6055 28.3353 95.3965 30.5449 95.3965 32.6159C95.3965 35.944 97.9169 40.4668 102.349 40.4668L117.2 40.4668V35.944Z" fill="currentColor"/>
<path d="M42.6538 16.928C44.8616 19.0633 45.9009 21.5993 45.9009 24.5957H41.378C41.378 20.7728 38.2745 17.9612 34.4019 17.9612C30.6017 17.9612 27.5253 20.8543 27.3081 24.505C27.3081 24.6427 27.2972 29.2038 27.2972 29.2038H31.8201V40.3829H27.2972V29.2038H22.689C22.689 29.2038 22.689 24.6481 22.689 24.5103C22.4718 20.8596 19.4181 17.9612 15.6541 17.9612C11.7452 17.9612 8.52291 21.0714 8.52291 24.8943V40.3829H4V24.8838C4 21.8875 5.19436 19.0633 7.36592 16.928C9.39272 14.9649 12.2827 13.502 15.6486 13.502C18.3993 13.502 21.4449 14.4827 23.906 16.928C24.3041 17.3069 24.7022 17.7202 25.028 18.1334C25.3537 17.7202 25.7156 17.3069 26.1138 16.928C28.1406 14.9649 31.0144 13.502 34.3803 13.502C37.0947 13.502 40.1565 14.4827 42.6538 16.928Z" fill="currentColor"/>
<path d="M61.3412 16.7576C63.549 18.8929 64.6736 21.5996 64.6736 24.5959H60.1469C60.1469 20.773 56.9619 17.7908 53.0893 17.7908C49.289 17.7908 46.1164 20.9452 45.8993 24.5959H41.3764C41.1592 20.9452 38.1055 17.7908 34.3414 17.7908C30.4326 17.7908 27.2477 20.8905 27.2477 24.7134L27.2956 29.2041H22.6874V24.7134C22.6874 21.717 23.8817 18.8929 26.0533 16.7576C28.0801 14.7945 30.9701 13.5022 34.336 13.5022C37.0866 13.5022 40.1323 14.3123 42.5934 16.7576C42.9915 17.1364 43.3896 17.5497 43.7154 17.963C44.0411 17.5497 44.403 17.1364 44.8011 16.7576C46.8279 14.7945 49.7233 13.5449 53.0893 13.5449C55.8037 13.5449 58.8439 14.3123 61.3412 16.7576Z" fill="currentColor"/>
<path d="M81.7414 13.5022H96.4195V17.769H81.7414V24.4252H77.1331V17.769H62.455V13.5022H77.1331V17.769H81.7414V13.5022Z" fill="currentColor"/>
<path d="M81.741 24.426H77.1328V40.4692H81.741V24.426Z" fill="currentColor"/>
<path d="M64.6733 24.5957H60.1504V40.3829H64.6733V24.5957Z" fill="currentColor"/>
<path d="M60.1499 24.5957H45.8984V29.2039H60.1499V24.5957Z" fill="currentColor"/>
<path d="M45.9018 29.2041H41.3789V40.3831H45.9018V29.2041Z" fill="currentColor"/>
<path d="M121.85 31.3369H117.242V35.9451H121.85V31.3369Z" fill="currentColor"/>
</svg>
