<svg xmlns="http://www.w3.org/2000/svg" viewBox="0 0 64 64" role="img" aria-label="Mate Delivery">
  <rect width="64" height="64" rx="14" fill="#E1FF01"/>
  <g fill="#122023" transform="translate(10 18)">
    <!-- m -->
    <path d="M2 28V6.2c0-.9.7-1.6 1.6-1.6h1.1c.55 0 1.05.3 1.35.8L12.5 18l6.45-12.6c.3-.5.8-.8 1.35-.8h1.1c.9 0 1.6.7 1.6 1.6V28c0 .9-.7 1.6-1.6 1.6h-1.7c-.9 0-1.6-.7-1.6-1.6V14.2L14.3 25.1c-.3.55-.9.9-1.5.9h-1.1c-.6 0-1.2-.35-1.5-.9L4.9 14.2V28c0 .9-.7 1.6-1.6 1.6H1.6C.7 29.6 0 28.9 0 28z"/>
    <!-- a -->
    <path d="M28.2 29.6c-5.2 0-8.9-3.5-8.9-8.6 0-5.1 3.7-8.6 8.9-8.6 2.2 0 4.1.7 5.5 2 .5.45.55 1.2.15 1.7l-1.1 1.45c-.4.55-1.2.65-1.75.25-.85-.65-1.85-1-3-.1-2.2 0-3.85 1.5-3.85 3.8s1.65 3.8 3.85 3.8c1.55 0 2.7-.7 3.4-1.45v-.4h-2.7c-.85 0-1.5-.65-1.5-1.5v-1.25c0-.85.65-1.5 1.5-1.5h6.55c.9 0 1.6.7 1.6 1.6v6.9c0 .75-.45 1.4-1.15 1.65-1.35.45-2.9.75-4.4.75h-.3z"/>
  </g>
</svg>
